<svg width="13" height="4" viewBox="0 0 13 4" fill="none" xmlns="http://www.w3.org/2000/svg">
<mask id="mask0_176_2537" style="mask-type:luminance" maskUnits="userSpaceOnUse" x="2" y="0" width="3" height="3">
<path d="M2.13281 0.956299H4.49877V2.57355H2.13281V0.956299Z" fill="white"/>
</mask>
<g mask="url(#mask0_176_2537)">
<mask id="mask1_176_2537" style="mask-type:luminance" maskUnits="userSpaceOnUse" x="2" y="0" width="3" height="3">
<path d="M2.13281 0.956299H4.49877V2.57355H2.13281V0.956299Z" fill="white"/>
</mask>
<g mask="url(#mask1_176_2537)">
<path d="M4.47626 0.956299H4.12603C3.80823 0.956299 3.54266 1.12727 3.40148 1.39218C3.38474 1.36036 3.35175 1.34043 3.31579 1.34043C3.27984 1.34043 3.24684 1.36036 3.23011 1.39218C3.08893 1.12728 2.82335 0.956299 2.50556 0.956299H2.1553C2.14933 0.956299 2.14362 0.958668 2.1394 0.962885C2.13518 0.967102 2.13281 0.972821 2.13281 0.978785V1.28009C2.13281 1.59564 2.3519 1.861 2.64594 1.93205C2.57878 2.02817 2.54283 2.14263 2.54296 2.25989V2.55107C2.54296 2.56349 2.55303 2.57355 2.56545 2.57355H2.88825C3.09564 2.57332 3.26371 2.40526 3.26394 2.19787V1.60308C3.28025 1.66589 3.29007 1.73021 3.29324 1.79503C3.29242 1.81201 3.29201 1.82915 3.292 1.84643L3.29327 2.23887C3.29327 2.2513 3.30334 2.26137 3.31577 2.26137C3.3282 2.26137 3.33827 2.2513 3.33827 2.23887L3.33954 1.84636C3.33954 1.82911 3.33913 1.812 3.3383 1.79503C3.34149 1.73022 3.3513 1.66591 3.3676 1.6031V2.19787C3.36783 2.40526 3.53591 2.57333 3.7433 2.57355H4.06611C4.07853 2.57355 4.0886 2.56349 4.0886 2.55107V2.25989C4.08892 2.14263 4.05309 2.02812 3.98598 1.93196C4.27987 1.8608 4.49875 1.59554 4.49875 1.28009V0.978785C4.49875 0.97282 4.49638 0.9671 4.49217 0.962883C4.48795 0.958666 4.48223 0.956298 4.47626 0.956299ZM3.21896 2.19787C3.21875 2.38042 3.07081 2.52835 2.88825 2.52855H2.58797V2.25989C2.58764 2.14512 2.6249 2.03339 2.69405 1.94179C2.73022 1.94774 2.7668 1.95072 2.80345 1.95071H2.89713C3.03115 1.95057 3.13976 1.84197 3.13992 1.70796C3.13992 1.69554 3.12985 1.68547 3.11744 1.68547C2.9468 1.68544 2.78501 1.76139 2.67603 1.89269C2.39193 1.83364 2.17781 1.58139 2.17781 1.28009V1.0013H2.50556C2.8287 1.0013 3.09475 1.1888 3.21897 1.47298L3.21896 2.19787ZM2.72798 1.9012C2.73289 1.89589 2.7379 1.89066 2.74304 1.88552C2.83628 1.79175 2.96145 1.73657 3.09357 1.73099C3.08177 1.83056 2.99741 1.9056 2.89713 1.90572H2.80345C2.77823 1.90573 2.75303 1.90422 2.72798 1.9012ZM3.36762 1.46316C3.34542 1.51562 3.32807 1.57001 3.31579 1.62564C3.3035 1.57 3.28615 1.51561 3.26396 1.46314V1.43728C3.26396 1.40865 3.28716 1.38545 3.31579 1.38545C3.34441 1.38545 3.36762 1.40865 3.36762 1.43728V1.46316ZM4.45376 1.28009C4.45376 1.58129 4.23983 1.83346 3.95592 1.89261C3.94473 1.87919 3.93287 1.86622 3.92036 1.85369C3.81287 1.74561 3.66661 1.68503 3.51418 1.68544C3.50176 1.68544 3.49169 1.69551 3.49169 1.70793C3.49185 1.84194 3.60045 1.95054 3.73446 1.95069H3.82812C3.86466 1.95071 3.90114 1.94774 3.93719 1.94183C4.00637 2.03341 4.04374 2.14509 4.04361 2.25986V2.52852H3.7433C3.56076 2.52831 3.41283 2.38038 3.41262 2.19783V1.47299C3.53685 1.18879 3.80289 1.0013 4.12603 1.0013H4.45376V1.28009ZM3.90329 1.90123C3.87835 1.90423 3.85325 1.90573 3.82813 1.90572H3.73444C3.63417 1.9056 3.54981 1.83056 3.53801 1.73099C3.67748 1.73723 3.80882 1.79844 3.90329 1.90123Z" fill="#FF6CA8"/>
</g>
</g>
<path d="M4.96436 2.12688C4.91369 2.10756 4.87414 2.08259 4.8457 2.05197L4.87086 2.01041C4.89783 2.03884 4.9341 2.06199 4.97967 2.07985C5.02524 2.09772 5.07317 2.10665 5.12348 2.10665C5.19639 2.10665 5.25143 2.09279 5.28862 2.06509C5.3258 2.03738 5.34439 2.0013 5.34439 1.95682C5.34439 1.92256 5.33455 1.89521 5.31486 1.8748C5.29518 1.85439 5.27075 1.83871 5.24159 1.82778C5.21243 1.81684 5.17306 1.80554 5.12348 1.79387C5.06734 1.78002 5.02232 1.76653 4.98842 1.75341C4.95452 1.74029 4.92572 1.72005 4.90202 1.69271C4.87833 1.66537 4.86648 1.62874 4.86648 1.58281C4.86648 1.54562 4.87632 1.51154 4.89601 1.48055C4.91569 1.44957 4.94577 1.42496 4.98623 1.40673C5.0267 1.38851 5.07718 1.37939 5.1377 1.37939C5.17998 1.37939 5.22154 1.38559 5.26237 1.39799C5.3032 1.41038 5.33856 1.42715 5.36845 1.44829L5.34767 1.49313C5.31705 1.47199 5.28333 1.45595 5.24651 1.44501C5.20969 1.43408 5.17342 1.42861 5.1377 1.42861C5.06698 1.42861 5.01339 1.44282 4.97694 1.47126C4.94048 1.49969 4.92226 1.53651 4.92226 1.58171C4.92226 1.61598 4.9321 1.64332 4.95178 1.66373C4.97147 1.68415 4.99589 1.69982 5.02506 1.71076C5.05422 1.72169 5.09395 1.73336 5.14426 1.74575C5.2004 1.75961 5.24524 1.77309 5.27877 1.78622C5.31231 1.79934 5.34093 1.81921 5.36462 1.84582C5.38832 1.87243 5.40016 1.90834 5.40016 1.95354C5.40016 1.99072 5.39014 2.02463 5.37009 2.05525C5.35004 2.08587 5.31924 2.11029 5.27768 2.12852C5.23612 2.14675 5.18509 2.15586 5.12457 2.15586C5.06844 2.15586 5.01503 2.1462 4.96436 2.12688ZM6.21273 1.38486V2.15039H6.1668L5.64514 1.48547V2.15039H5.58937V1.38486H5.63639L6.15695 2.04978V1.38486H6.21273ZM6.4796 1.38486H6.53537V2.15039H6.4796V1.38486ZM7.349 1.77091H7.40259V2.05743C7.36905 2.08951 7.3284 2.11394 7.28065 2.13071C7.23289 2.14747 7.18241 2.15586 7.12918 2.15586C7.05336 2.15586 6.98501 2.13909 6.92413 2.10555C6.86325 2.07202 6.8155 2.02572 6.78087 1.96666C6.74624 1.90761 6.72892 1.84126 6.72892 1.76763C6.72892 1.69399 6.74624 1.62764 6.78087 1.56859C6.8155 1.50953 6.86325 1.46324 6.92413 1.4297C6.98501 1.39616 7.05372 1.37939 7.13028 1.37939C7.18642 1.37939 7.238 1.38833 7.28502 1.40619C7.33205 1.42405 7.37233 1.45011 7.40587 1.48438L7.37087 1.52156C7.33879 1.48948 7.30289 1.46634 7.26315 1.45212C7.22342 1.4379 7.17949 1.43079 7.13137 1.43079C7.06575 1.43079 7.00652 1.44538 6.95366 1.47454C6.9008 1.5037 6.85943 1.54398 6.82953 1.59538C6.79964 1.64678 6.7847 1.7042 6.7847 1.76763C6.7847 1.83033 6.79982 1.88738 6.83008 1.93878C6.86034 1.99018 6.90171 2.03064 6.95421 2.06017C7.0067 2.0897 7.06575 2.10446 7.13137 2.10446C7.21886 2.10446 7.2914 2.08113 7.349 2.03447V1.77091ZM7.64757 1.38486H7.9505C8.02997 1.38486 8.1005 1.40127 8.16211 1.43408C8.22372 1.46688 8.27165 1.51227 8.30592 1.57023C8.34019 1.62819 8.35732 1.69399 8.35732 1.76763C8.35732 1.84126 8.34019 1.90706 8.30592 1.96502C8.27165 2.02299 8.22372 2.06837 8.16211 2.10118C8.1005 2.13399 8.02997 2.15039 7.9505 2.15039H7.64757V1.38486ZM7.94612 2.10008C8.01684 2.10008 8.07918 2.08605 8.13313 2.05798C8.18708 2.02991 8.22864 1.99072 8.2578 1.94042C8.28697 1.89011 8.30155 1.83251 8.30155 1.76763C8.30155 1.70274 8.28697 1.64514 8.2578 1.59484C8.22864 1.54453 8.18708 1.50534 8.13313 1.47727C8.07918 1.4492 8.01684 1.43517 7.94612 1.43517H7.70334V2.10008H7.94612ZM9.17424 1.38486V2.15039H9.11846V1.78622H8.60665V2.15039H8.55088V1.38486H8.60665V1.73701H9.11846V1.38486H9.17424ZM9.91464 1.93495H9.47063L9.3733 2.15039H9.31315L9.6653 1.38486H9.72107L10.0732 2.15039H10.0131L9.91464 1.93495ZM9.89386 1.88792L9.69264 1.4461L9.49251 1.88792H9.89386Z" fill="white"/>
</svg>
