<svg width="14" height="4" viewBox="0 0 14 4" fill="none" xmlns="http://www.w3.org/2000/svg">
<g clip-path="url(#clip0_135_1002)">
<mask id="mask0_135_1002" style="mask-type:luminance" maskUnits="userSpaceOnUse" x="2" y="1" width="3" height="2">
<path d="M2.44336 1.03809H4.05252V2.64725H2.44336V1.03809Z" fill="white"/>
</mask>
<g mask="url(#mask0_135_1002)">
<mask id="mask1_135_1002" style="mask-type:luminance" maskUnits="userSpaceOnUse" x="2" y="1" width="3" height="2">
<path d="M2.44336 1.03809H4.05252V2.64725H2.44336V1.03809Z" fill="white"/>
</mask>
<g mask="url(#mask1_135_1002)">
<path d="M3.24805 1.03809H4.05263V2.64725H3.24805V1.03809Z" fill="#382D5E"/>
</g>
<mask id="mask2_135_1002" style="mask-type:luminance" maskUnits="userSpaceOnUse" x="2" y="1" width="3" height="2">
<path d="M2.44336 1.03809H4.05252V2.64725H2.44336V1.03809Z" fill="white"/>
</mask>
<g mask="url(#mask2_135_1002)">
<path d="M4.05263 1.03809C3.60827 1.03809 3.24805 1.39831 3.24805 1.84267C3.24805 2.28703 3.60827 2.64725 4.05263 2.64725V1.03809Z" fill="#EFE0E2"/>
</g>
<mask id="mask3_135_1002" style="mask-type:luminance" maskUnits="userSpaceOnUse" x="2" y="1" width="3" height="2">
<path d="M2.44336 1.03809H4.05252V2.64725H2.44336V1.03809Z" fill="white"/>
</mask>
<g mask="url(#mask3_135_1002)">
<path d="M4.05299 1.03809C3.75675 1.03809 3.5166 1.27824 3.5166 1.57447C3.5166 1.87071 3.75675 2.11086 4.05299 2.11086V1.03809Z" fill="#EFE0E2"/>
</g>
<mask id="mask4_135_1002" style="mask-type:luminance" maskUnits="userSpaceOnUse" x="2" y="1" width="3" height="2">
<path d="M2.44336 1.03809H4.05252V2.64725H2.44336V1.03809Z" fill="white"/>
</mask>
<g mask="url(#mask4_135_1002)">
<path d="M4.05237 1.03809C3.90425 1.03809 3.78418 1.15816 3.78418 1.30628C3.78418 1.4544 3.90425 1.57447 4.05237 1.57447V1.03809Z" fill="#E37F7C"/>
</g>
<mask id="mask5_135_1002" style="mask-type:luminance" maskUnits="userSpaceOnUse" x="2" y="1" width="3" height="2">
<path d="M2.44336 1.03809H4.05252V2.64725H2.44336V1.03809Z" fill="white"/>
</mask>
<g mask="url(#mask5_135_1002)">
<path d="M2.44336 1.03809H3.24794V2.64725H2.44336V1.03809Z" fill="#C84449"/>
</g>
<mask id="mask6_135_1002" style="mask-type:luminance" maskUnits="userSpaceOnUse" x="2" y="1" width="3" height="2">
<path d="M2.44336 1.03809H4.05252V2.64725H2.44336V1.03809Z" fill="white"/>
</mask>
<g mask="url(#mask6_135_1002)">
<path d="M2.44336 2.64725C2.88772 2.64725 3.24794 2.28703 3.24794 1.84267C3.24794 1.39831 2.88772 1.03809 2.44336 1.03809V2.64725Z" fill="#EFE0E2"/>
</g>
<mask id="mask7_135_1002" style="mask-type:luminance" maskUnits="userSpaceOnUse" x="2" y="1" width="3" height="2">
<path d="M2.44336 1.03809H4.05252V2.64725H2.44336V1.03809Z" fill="white"/>
</mask>
<g mask="url(#mask7_135_1002)">
<path d="M2.44336 2.64748C2.7396 2.64748 2.97975 2.40733 2.97975 2.1111C2.97975 1.81486 2.7396 1.57471 2.44336 1.57471V2.64748Z" fill="#EFE0E2"/>
</g>
<mask id="mask8_135_1002" style="mask-type:luminance" maskUnits="userSpaceOnUse" x="2" y="1" width="3" height="2">
<path d="M2.44336 1.03809H4.05252V2.64725H2.44336V1.03809Z" fill="white"/>
</mask>
<g mask="url(#mask8_135_1002)">
<path d="M2.44336 2.64723C2.59148 2.64723 2.71155 2.52715 2.71155 2.37903C2.71155 2.23091 2.59148 2.11084 2.44336 2.11084V2.64723Z" fill="#E37F7C"/>
</g>
</g>
<path d="M4.37988 2.03542C4.38132 2.0663 4.3894 2.09432 4.40413 2.11946C4.41885 2.1446 4.43896 2.16597 4.46446 2.18356C4.48996 2.20116 4.51995 2.21481 4.55443 2.22451C4.58891 2.2342 4.62662 2.23905 4.66756 2.23905C4.70922 2.23905 4.74675 2.23402 4.78015 2.22397C4.81355 2.21391 4.84211 2.19955 4.86581 2.18087C4.88951 2.1622 4.90783 2.13957 4.92076 2.11299C4.93369 2.08642 4.94015 2.05697 4.94015 2.02464C4.94015 1.98011 4.92902 1.94365 4.90675 1.91528C4.88449 1.88691 4.85665 1.8632 4.82325 1.84417C4.78985 1.82514 4.75358 1.80915 4.71443 1.79622C4.67528 1.78329 4.63901 1.76965 4.60561 1.75528C4.57221 1.74092 4.54437 1.72439 4.52211 1.70572C4.49984 1.68704 4.4887 1.66226 4.4887 1.63138C4.4887 1.61414 4.49248 1.59797 4.50002 1.58289C4.50756 1.56781 4.51869 1.5547 4.53342 1.54356C4.54814 1.53243 4.56628 1.52345 4.58783 1.51663C4.60938 1.5098 4.63416 1.50639 4.66217 1.50639C4.70886 1.50639 4.74855 1.51627 4.78123 1.53602C4.81391 1.55577 4.83313 1.58684 4.83887 1.62922H4.91214C4.90783 1.60264 4.89813 1.57876 4.88305 1.55757C4.86796 1.53638 4.84893 1.51842 4.82594 1.5037C4.80296 1.48897 4.77692 1.47784 4.74783 1.4703C4.71874 1.46276 4.68839 1.45898 4.65679 1.45898C4.62374 1.45898 4.59232 1.46329 4.56251 1.47191C4.5327 1.48053 4.50648 1.4931 4.48386 1.50962C4.46123 1.52614 4.44327 1.54698 4.42998 1.57212C4.4167 1.59726 4.41005 1.62599 4.41005 1.65831C4.41005 1.70069 4.42083 1.73481 4.44237 1.76067C4.46392 1.78653 4.49104 1.80808 4.52372 1.82531C4.5564 1.84255 4.59178 1.85728 4.62985 1.86949C4.66792 1.8817 4.7033 1.89553 4.73598 1.91097C4.76866 1.92641 4.79578 1.94527 4.81732 1.96754C4.83887 1.9898 4.84965 2.01961 4.84965 2.05696C4.84965 2.10365 4.83259 2.13777 4.79847 2.15932C4.76435 2.18087 4.71892 2.19165 4.66217 2.19165C4.61692 2.19165 4.58065 2.18572 4.55335 2.17387C4.52606 2.16202 4.50523 2.14783 4.49086 2.13131C4.47649 2.11479 4.4668 2.09773 4.46177 2.08013C4.45674 2.06253 4.45387 2.04763 4.45315 2.03542H4.37988ZM5.75039 1.47191V2.04835H5.74608L5.1481 1.45898H5.14271V2.22612H5.19227V1.64969H5.19658L5.79456 2.23905H5.79995V1.47191H5.75039ZM6.10161 1.47191V2.22612H6.19966V1.47191H6.10161ZM7.18768 1.88996H6.97435V1.93414H7.09502V2.12915C7.0627 2.14998 7.02966 2.16543 6.9959 2.17548C6.96214 2.18554 6.92371 2.19057 6.88061 2.19057C6.82387 2.19057 6.7743 2.18195 6.73193 2.16471C6.68955 2.14747 6.65435 2.12359 6.62634 2.09306C6.59832 2.06253 6.57731 2.02626 6.56331 1.98424C6.5493 1.94222 6.5423 1.89607 6.5423 1.84579C6.5423 1.79622 6.54894 1.75061 6.56223 1.70895C6.57552 1.66729 6.59545 1.63138 6.62203 1.60121C6.6486 1.57104 6.68111 1.54769 6.71953 1.53117C6.75796 1.51465 6.80268 1.50639 6.85368 1.50639C6.88744 1.50639 6.91904 1.50998 6.94849 1.51717C6.97794 1.52435 7.00416 1.53369 7.02714 1.54518C7.05013 1.55667 7.06899 1.56978 7.08371 1.58451C7.09844 1.59923 7.10795 1.61414 7.11226 1.62922H7.18984C7.18337 1.61342 7.17242 1.59564 7.15698 1.57589C7.14153 1.55613 7.12052 1.53764 7.09395 1.5204C7.06737 1.50316 7.03451 1.48861 6.99536 1.47676C6.95621 1.46491 6.91006 1.45898 6.85691 1.45898C6.79585 1.45898 6.73965 1.4676 6.68829 1.48484C6.63693 1.50208 6.59258 1.52686 6.55522 1.55919C6.51787 1.59151 6.48878 1.6312 6.46795 1.67824C6.44712 1.72529 6.43671 1.77863 6.43671 1.83824C6.43671 1.88924 6.44479 1.93863 6.46095 1.98639C6.47711 2.03416 6.50189 2.0769 6.53529 2.11461C6.56869 2.15232 6.61125 2.18249 6.66297 2.20511C6.71469 2.22774 6.77646 2.23905 6.84829 2.23905C6.90216 2.23905 6.94993 2.23313 6.99159 2.22127C7.03325 2.20942 7.06773 2.19631 7.09502 2.18195V2.22612H7.18768V1.88996ZM7.39242 2.22612V1.47191H7.64023C7.69985 1.47191 7.75444 1.48143 7.804 1.50047C7.85356 1.5195 7.89612 1.54572 7.93168 1.57912C7.96723 1.61252 7.99489 1.65221 8.01464 1.69818C8.03439 1.74415 8.04427 1.79371 8.04427 1.84686C8.04427 1.90217 8.03403 1.95299 8.01356 1.99932C7.99309 2.04565 7.96508 2.0857 7.92952 2.11946C7.89396 2.15322 7.85248 2.17943 7.80508 2.19811C7.75767 2.21679 7.70703 2.22612 7.65316 2.22612H7.39242ZM7.49046 2.17872H7.60898C7.66788 2.17872 7.71798 2.16884 7.75928 2.14909C7.80059 2.12933 7.83453 2.10365 7.8611 2.07205C7.88768 2.04044 7.90707 2.00507 7.91928 1.96592C7.9315 1.92677 7.9376 1.88781 7.9376 1.84902C7.9376 1.80592 7.93042 1.76444 7.91605 1.72457C7.90169 1.68471 7.88068 1.64951 7.85302 1.61898C7.82537 1.58846 7.79107 1.56421 7.75013 1.54626C7.70918 1.5283 7.66214 1.51932 7.60898 1.51932H7.49046V2.17872ZM8.30395 1.85117H8.7554V2.22612H8.85344V1.47191H8.7554V1.80161H8.30395V1.47191H8.2059V2.22612H8.30395V1.85117ZM9.53116 2.00417L9.63459 2.22612H9.7391L9.38786 1.47191H9.33399L9.01506 2.22612H9.06463L9.15944 2.00417H9.53116ZM9.50853 1.95569H9.17991L9.33506 1.59259H9.33937L9.50853 1.95569ZM10.2778 2.22612H10.3758V1.96107L10.4976 1.8307L10.7842 2.22612H10.8962L10.5601 1.7639L10.8338 1.47191H10.7799L10.3758 1.89643V1.47191H10.2778V2.22612ZM11.0148 2.17979C11.0148 2.16399 11.0205 2.15034 11.032 2.13885C11.0435 2.12736 11.0571 2.12161 11.0729 2.12161C11.0887 2.12161 11.1024 2.12736 11.1139 2.13885C11.1254 2.15034 11.1311 2.16399 11.1311 2.17979C11.1311 2.1956 11.1254 2.20924 11.1139 2.22074C11.1024 2.23223 11.0887 2.23798 11.0729 2.23798C11.0571 2.23798 11.0435 2.23223 11.032 2.22074C11.0205 2.20924 11.0148 2.1956 11.0148 2.17979Z" fill="#FCF7EE"/>
</g>
<defs>
<clipPath id="clip0_135_1002">
<rect width="13.6602" height="3.68576" fill="white"/>
</clipPath>
</defs>
</svg>
