<svg width="3" height="2" viewBox="0 0 3 2" fill="none" xmlns="http://www.w3.org/2000/svg">
<mask id="mask0_176_2507" style="mask-type:luminance" maskUnits="userSpaceOnUse" x="0" y="0" width="3" height="2">
<path d="M0 0H3V2H0V0Z" fill="white"/>
</mask>
<g mask="url(#mask0_176_2507)">
<mask id="mask1_176_2507" style="mask-type:luminance" maskUnits="userSpaceOnUse" x="0" y="0" width="3" height="2">
<path d="M0 0H3V2H0V0Z" fill="white"/>
</mask>
<g mask="url(#mask1_176_2507)">
<path d="M2.97147 5.14978e-10H2.52737C2.12441 5.14978e-10 1.78767 0.211433 1.60865 0.539037C1.58743 0.499683 1.54559 0.47504 1.5 0.47504C1.45441 0.47504 1.41258 0.499683 1.39136 0.539037C1.21234 0.211449 0.875588 5.14978e-10 0.472639 5.14978e-10H0.0285119C0.02095 5.14978e-10 0.0136979 0.0029294 0.00835089 0.00814431C0.00300389 0.0133592 0 0.0204324 0 0.0278074V0.400417C0 0.790652 0.277799 1.11881 0.65064 1.20667C0.56548 1.32554 0.519892 1.4671 0.520067 1.61211V1.97219C0.520067 1.98755 0.532832 2 0.548579 2H0.957888C1.22086 1.99971 1.43396 1.79187 1.43426 1.5354V0.799845C1.45493 0.877524 1.46738 0.957067 1.47141 1.03722C1.47037 1.05823 1.46984 1.07942 1.46984 1.1008L1.47144 1.58611C1.47144 1.60148 1.48422 1.61394 1.49998 1.61394C1.51573 1.61394 1.52851 1.60148 1.52851 1.58611L1.53011 1.10071C1.53011 1.07938 1.52959 1.05822 1.52855 1.03723C1.53258 0.957081 1.54503 0.877545 1.5657 0.799871V1.5354C1.56599 1.79188 1.77911 1.99972 2.04208 2H2.4514C2.46715 2 2.47991 1.98755 2.47991 1.97219V1.61211C2.48032 1.46709 2.43488 1.32548 2.34979 1.20657C2.72244 1.11856 2.99998 0.790524 2.99998 0.400417V0.0278074C2.99998 0.0204315 2.99698 0.0133575 2.99163 0.00814242C2.98628 0.00292735 2.97903 -1.41791e-06 2.97147 5.14978e-10ZM1.37722 1.5354C1.37695 1.76116 1.18936 1.9441 0.957888 1.94435H0.577135V1.61211C0.576717 1.47017 0.62396 1.332 0.711645 1.21872C0.757499 1.22608 0.803894 1.22977 0.850366 1.22975H0.96915C1.13908 1.22957 1.27679 1.09528 1.277 0.929551C1.277 0.914193 1.26424 0.901743 1.24849 0.901743C1.03212 0.901696 0.826976 0.995623 0.688791 1.158C0.328555 1.08498 0.0570621 0.773032 0.0570621 0.400417V0.0556522H0.472639C0.88237 0.0556522 1.21972 0.287524 1.37723 0.638957L1.37722 1.5354ZM0.75467 1.16852C0.760884 1.16196 0.767246 1.1555 0.773757 1.14914C0.891986 1.03317 1.0507 0.964927 1.21823 0.958027C1.20326 1.08117 1.09629 1.17397 0.96915 1.17412H0.850366C0.818381 1.17413 0.786425 1.17226 0.75467 1.16852ZM1.56572 0.626813C1.53757 0.691695 1.51557 0.758955 1.5 0.827749C1.48442 0.758947 1.46242 0.691679 1.43428 0.626786V0.594808C1.43428 0.559408 1.4637 0.530711 1.5 0.530711C1.53629 0.530711 1.56572 0.559408 1.56572 0.594808V0.626813ZM2.94294 0.400417C2.94294 0.772898 2.67167 1.08475 2.31168 1.1579C2.29748 1.14131 2.28245 1.12527 2.26659 1.10977C2.1303 0.976111 1.94484 0.901189 1.75155 0.901706C1.73581 0.901706 1.72304 0.914156 1.72304 0.929514C1.72324 1.09524 1.86094 1.22954 2.03087 1.22973H2.14963C2.19596 1.22975 2.24221 1.22608 2.28793 1.21877C2.37565 1.33203 2.42303 1.47013 2.42287 1.61206V1.94431H2.04208C1.81062 1.94405 1.62304 1.76111 1.62278 1.53536V0.638979C1.7803 0.287513 2.11764 0.0556522 2.52737 0.0556522H2.94294V0.400417ZM2.24495 1.16857C2.21332 1.17227 2.18149 1.17413 2.14964 1.17412H2.03085C1.90371 1.17397 1.79674 1.08117 1.78177 0.958027C1.95862 0.965748 2.12516 1.04144 2.24495 1.16857Z" fill="#FF809E"/>
</g>
</g>
</svg>
